<svg width="400" height="200" viewBox="0 0 400 200" fill="none" xmlns="http://www.w3.org/2000/svg">
<g id="canon-container">
<g id="smoke">
<g id="grey-smoke">
<ellipse id="Ellipse 4" cx="332.766" cy="21.256" rx="28.6525" ry="21.256" fill="#D9D9D9"/>
<ellipse id="Ellipse 5" cx="366.809" cy="28.0193" rx="28.6525" ry="21.256" fill="#D9D9D9"/>
<ellipse id="Ellipse 6" cx="371.348" cy="55.0725" rx="28.6525" ry="21.256" fill="#D9D9D9"/>
</g>
<g id="white-smoke">
<ellipse id="Ellipse 7" cx="323.404" cy="28.5024" rx="19.2908" ry="11.1111" fill="white"/>
<ellipse id="Ellipse 8" rx="18.9772" ry="11.3555" transform="matrix(0.955082 -0.296343 0.39347 0.919338 344.295 29.1068)" fill="white"/>
<ellipse id="Ellipse 9" rx="18.9772" ry="11.3555" transform="matrix(0.955082 -0.296343 0.39347 0.919338 330.678 40.701)" fill="white"/>
<ellipse id="Ellipse 10" rx="18.9772" ry="11.3555" transform="matrix(0.955082 -0.296343 0.39347 0.919338 355.643 42.6334)" fill="white"/>
<ellipse id="Ellipse 11" rx="19.2564" ry="11.1384" transform="matrix(0.995272 0.0971273 -0.133408 0.991061 349.162 55.9043)" fill="white"/>
<ellipse id="Ellipse 12" rx="18.7642" ry="11.5164" transform="matrix(0.921937 -0.38734 0.501411 0.865209 311.868 43.8023)" fill="white"/>
<ellipse id="Ellipse 13" rx="18.7642" ry="11.5164" transform="matrix(0.921937 -0.38734 0.501411 0.865209 330.592 58.7781)" fill="white"/>
<ellipse id="Ellipse 14" rx="18.7642" ry="11.5164" transform="matrix(0.921937 -0.38734 0.501411 0.865209 309.031 57.8119)" fill="white"/>
</g>
<g id="strokes">
<line id="Line 1" y1="-0.5" x2="49.6694" y2="-0.5" transform="matrix(0.925266 -0.379319 0.492234 0.870463 286.525 56.0387)" stroke="black"/>
<line id="Line 2" y1="-0.5" x2="49.6694" y2="-0.5" transform="matrix(0.925266 -0.379319 0.492234 0.870463 309.787 55.0725)" stroke="black"/>
<line id="Line 3" y1="-0.5" x2="49.6694" y2="-0.5" transform="matrix(0.925266 -0.379319 0.492234 0.870463 296.738 74.8792)" stroke="black"/>
</g>
</g>
<g id="disc">
<ellipse id="Ellipse 1" rx="56.0219" ry="13.7975" transform="matrix(0.956563 -0.269313 0.365003 0.939874 227.456 91.4841)" fill="#B74545"/>
<ellipse id="Ellipse 2" rx="53.1657" ry="13.0941" transform="matrix(0.956563 -0.269313 0.365003 0.939874 227.193 91.781)" fill="#C47D7D"/>
<ellipse id="Ellipse 3" rx="33.1445" ry="8.16308" transform="matrix(0.956563 -0.269313 0.365003 0.939874 227.025 92.927)" fill="#F8E6E6"/>
</g>
<g id="canon">
<rect id="left-foot" y="129.469" width="125.957" height="57.971" fill="#7D6060"/>
<rect id="barrel" width="255.503" height="49.3081" transform="matrix(0.947271 -0.320433 0.422836 0.906206 4.539 144.674)" fill="black"/>
<rect id="right-foot" x="31.773" y="142.029" width="125.957" height="57.971" fill="#7D6060"/>
</g>
</g>
</svg>
